<svg width="212" height="56" viewBox="0 0 212 56" fill="none" xmlns="http://www.w3.org/2000/svg">
<rect width="212" height="56" rx="28" fill="#E25607"/>
<path d="M59 25L41 25L44.9857 21M41 31L59 31L55.0143 35" stroke="white" stroke-width="1.25" stroke-linecap="round" stroke-linejoin="round"/>
<path d="M79.44 34V22.8H88.56V34H86.64V24.464H81.36V34H79.44ZM94.8 34.176C94.0533 34.176 93.3653 34.0213 92.736 33.712C92.1067 33.392 91.6 32.912 91.216 32.272C90.832 31.632 90.64 30.8213 90.64 29.84V29.52C90.64 28.5813 90.8213 27.8027 91.184 27.184C91.5573 26.5653 92.048 26.1067 92.656 25.808C93.264 25.4987 93.9253 25.344 94.64 25.344C95.9307 25.344 96.9173 25.6907 97.6 26.384C98.2933 27.0773 98.64 28.0693 98.64 29.36V30.256H92.432C92.4533 30.832 92.576 31.296 92.8 31.648C93.024 32 93.312 32.256 93.664 32.416C94.016 32.5653 94.3947 32.64 94.8 32.64C95.408 32.64 95.8507 32.544 96.128 32.352C96.416 32.16 96.6133 31.9093 96.72 31.6H98.48C98.3093 32.4427 97.888 33.0827 97.216 33.52C96.5547 33.9573 95.7493 34.176 94.8 34.176ZM94.72 26.88C94.3253 26.88 93.9573 26.9493 93.616 27.088C93.2747 27.2267 92.9973 27.4453 92.784 27.744C92.5707 28.0427 92.4533 28.4427 92.432 28.944H96.88C96.8693 28.4107 96.768 27.9947 96.576 27.696C96.384 27.3973 96.128 27.1893 95.808 27.072C95.488 26.944 95.1253 26.88 94.72 26.88ZM100.401 37.2V25.52H102.033V26.944C102.289 26.4533 102.668 26.064 103.169 25.776C103.681 25.488 104.257 25.344 104.897 25.344C106.007 25.344 106.881 25.6907 107.521 26.384C108.161 27.0773 108.481 28.1227 108.481 29.52V29.84C108.481 30.8 108.332 31.6053 108.033 32.256C107.735 32.896 107.319 33.376 106.785 33.696C106.252 34.016 105.623 34.176 104.897 34.176C104.289 34.176 103.735 34.0427 103.233 33.776C102.732 33.5093 102.375 33.136 102.161 32.656V37.2H100.401ZM104.481 32.64C105.143 32.64 105.676 32.4107 106.081 31.952C106.487 31.4933 106.689 30.7893 106.689 29.84V29.52C106.689 28.624 106.492 27.9627 106.097 27.536C105.703 27.0987 105.164 26.88 104.481 26.88C104.087 26.88 103.708 26.9653 103.345 27.136C102.993 27.3067 102.705 27.5573 102.481 27.888C102.268 28.2187 102.161 28.6293 102.161 29.12V30.24C102.161 30.7733 102.268 31.2213 102.481 31.584C102.705 31.936 102.993 32.2027 103.345 32.384C103.697 32.5547 104.076 32.64 104.481 32.64ZM113.925 34.176C113.178 34.176 112.49 34.0213 111.861 33.712C111.232 33.392 110.725 32.912 110.341 32.272C109.957 31.632 109.765 30.8213 109.765 29.84V29.52C109.765 28.5813 109.946 27.8027 110.309 27.184C110.682 26.5653 111.173 26.1067 111.781 25.808C112.389 25.4987 113.05 25.344 113.765 25.344C115.056 25.344 116.042 25.6907 116.725 26.384C117.418 27.0773 117.765 28.0693 117.765 29.36V30.256H111.557C111.578 30.832 111.701 31.296 111.925 31.648C112.149 32 112.437 32.256 112.789 32.416C113.141 32.5653 113.52 32.64 113.925 32.64C114.533 32.64 114.976 32.544 115.253 32.352C115.541 32.16 115.738 31.9093 115.845 31.6H117.605C117.434 32.4427 117.013 33.0827 116.341 33.52C115.68 33.9573 114.874 34.176 113.925 34.176ZM113.845 26.88C113.45 26.88 113.082 26.9493 112.741 27.088C112.4 27.2267 112.122 27.4453 111.909 27.744C111.696 28.0427 111.578 28.4427 111.557 28.944H116.005C115.994 28.4107 115.893 27.9947 115.701 27.696C115.509 27.3973 115.253 27.1893 114.933 27.072C114.613 26.944 114.25 26.88 113.845 26.88ZM119.526 34V25.52H123.526C124.241 25.52 124.817 25.6213 125.254 25.824C125.702 26.016 126.033 26.288 126.246 26.64C126.46 26.9813 126.566 27.376 126.566 27.824C126.566 28.1973 126.454 28.56 126.23 28.912C126.006 29.2533 125.692 29.4827 125.286 29.6C125.809 29.728 126.204 29.9733 126.47 30.336C126.748 30.688 126.886 31.104 126.886 31.584C126.886 32.32 126.641 32.9067 126.15 33.344C125.66 33.7813 124.892 34 123.846 34H119.526ZM121.286 32.496H123.606C124.182 32.496 124.577 32.4053 124.79 32.224C125.014 32.032 125.126 31.7653 125.126 31.424C125.126 31.0827 125.014 30.8267 124.79 30.656C124.577 30.4747 124.182 30.384 123.606 30.384H121.286V32.496ZM121.286 29.008H123.366C123.9 29.008 124.273 28.9227 124.486 28.752C124.7 28.5707 124.806 28.3253 124.806 28.016C124.806 27.7067 124.7 27.4667 124.486 27.296C124.273 27.1147 123.9 27.024 123.366 27.024H121.286V29.008ZM132.331 34.176C131.585 34.176 130.897 34.0213 130.267 33.712C129.638 33.392 129.131 32.912 128.747 32.272C128.363 31.632 128.171 30.8213 128.171 29.84V29.52C128.171 28.5813 128.353 27.8027 128.715 27.184C129.089 26.5653 129.579 26.1067 130.187 25.808C130.795 25.4987 131.457 25.344 132.171 25.344C133.462 25.344 134.449 25.6907 135.131 26.384C135.825 27.0773 136.171 28.0693 136.171 29.36V30.256H129.963C129.985 30.832 130.107 31.296 130.331 31.648C130.555 32 130.843 32.256 131.195 32.416C131.547 32.5653 131.926 32.64 132.331 32.64C132.939 32.64 133.382 32.544 133.659 32.352C133.947 32.16 134.145 31.9093 134.251 31.6H136.011C135.841 32.4427 135.419 33.0827 134.747 33.52C134.086 33.9573 133.281 34.176 132.331 34.176ZM132.251 26.88C131.857 26.88 131.489 26.9493 131.147 27.088C130.806 27.2267 130.529 27.4453 130.315 27.744C130.102 28.0427 129.985 28.4427 129.963 28.944H134.411C134.401 28.4107 134.299 27.9947 134.107 27.696C133.915 27.3973 133.659 27.1893 133.339 27.072C133.019 26.944 132.657 26.88 132.251 26.88ZM141.453 34.176C140.695 34.176 140.013 34.016 139.405 33.696C138.797 33.376 138.317 32.896 137.965 32.256C137.623 31.616 137.453 30.8107 137.453 29.84V29.52C137.453 28.6027 137.634 27.8347 137.997 27.216C138.37 26.5973 138.861 26.1333 139.469 25.824C140.077 25.504 140.738 25.344 141.453 25.344C142.199 25.344 142.829 25.472 143.341 25.728C143.863 25.984 144.269 26.3307 144.557 26.768C144.855 27.2053 145.047 27.696 145.133 28.24H143.341C143.234 27.8453 143.042 27.52 142.765 27.264C142.487 27.008 142.05 26.88 141.453 26.88C141.058 26.88 140.69 26.9707 140.349 27.152C140.018 27.3333 139.751 27.6213 139.549 28.016C139.346 28.4 139.245 28.9013 139.245 29.52V29.84C139.245 30.512 139.346 31.056 139.549 31.472C139.751 31.8773 140.018 32.176 140.349 32.368C140.69 32.5493 141.058 32.64 141.453 32.64C141.954 32.64 142.359 32.528 142.669 32.304C142.978 32.08 143.202 31.7387 143.341 31.28H145.133C145.026 31.8773 144.802 32.3947 144.461 32.832C144.13 33.2587 143.709 33.5893 143.197 33.824C142.685 34.0587 142.103 34.176 141.453 34.176ZM148.808 34V27.024H146.008V25.52H153.368V27.024H150.568V34H148.808ZM154.808 34V25.52H156.568V31.52L160.648 25.52H162.328V34H160.568V28L156.488 34H154.808Z" fill="white"/>
</svg>
